<?xml version="1.0" standalone="no"?>
<!DOCTYPE svg PUBLIC "-//W3C//DTD SVG 1.1//EN" "http://www.w3.org/Graphics/SVG/1.1/DTD/svg11.dtd" >
<svg xmlns="http://www.w3.org/2000/svg">
<metadata>
This is a custom SVG webfont generated by Font Squirrel.
Copyright   : Dubiel  1991 by David Rakowski All Rights Reserved Commercial distribution prohibited
</metadata>
<defs>
<font id="webfont4nwGv8Ai" horiz-adv-x="716" >
<font-face units-per-em="2048" ascent="1638" descent="-410" />
<missing-glyph horiz-adv-x="516" />
<glyph unicode=" "  horiz-adv-x="516" />
<glyph unicode="&#x09;" horiz-adv-x="516" />
<glyph unicode="&#xa0;" horiz-adv-x="516" />
<glyph unicode="!" horiz-adv-x="475" d="M135 100q0 39 33 76q31 33 74 33t75.5 -33t32.5 -76t-33 -75q-31 -31 -75 -31q-41 0 -74 32.5t-33 73.5zM137 1278q6 68 111 68q51 0 71 -15q23 -16 37 -51q-4 -90 -20 -229l-37 -301l-37 -285q-4 -37 -18 -215h-6q-8 162 -15 244q-4 45 -13 131t-11 114q-6 47 -13.5 121 t-17.5 160z" />
<glyph unicode="&#x22;" horiz-adv-x="555" d="M45 1237q0 15 6 31q25 68 88 69q33 0 70 -16q33 -14 39 -49q8 -33 8 -80q0 -182 -166 -342h-16l27.5 35.5l25.5 34.5q28 37 49 73q25 41 35 76q12 41 12 92q-31 -33 -76 -33q-27 0 -51 19q-51 39 -51 90zM295 1237q0 15 6 31q25 66 86 69q35 0 72 -16q33 -14 39 -49 q8 -33 8 -78q0 -184 -168 -344h-14l27.5 35.5l25.5 34.5q28 37 49 73q25 41 35 76q12 41 12 92q-33 -33 -78 -33q-27 0 -51 19q-49 43 -49 90z" />
<glyph unicode="$" horiz-adv-x="874" d="M37 254q0 37 20 63q39 57 88 58l3 -1q3 -1 9.5 -2t10.5 -1q25 -10 37 -33q12 -25 12 -51q0 -29 -10 -49q-6 -16 -45 -35t-39 -41q0 -8 4 -21q31 -49 96 -84q63 -33 127 -37l2 592q-242 115 -260 258q-2 10 -2 45q0 186 164 302q41 23 49 26q39 16 47 21v88h12v-82 q31 14 113 14q47 0 78 -6v72h12v-74q49 -14 88 -31q29 -12 66 -45q86 -80 88 -174q0 -88 -66 -100q-86 0 -96 59q0 31 20.5 57.5t49.5 32.5q29 2 33 25q-12 51 -70 96q-55 43 -115 49v-526q66 -20 131 -70q63 -47 101 -112q39 -68 39 -138q-2 -264 -220 -368q-4 -2 -12 -7.5 t-14 -7.5q-20 -10 -27 -10v-3v-9t1 -13.5t1 -18.5v-23v-109h-10v174q-106 -14 -147 -14q-33 0 -44 2v-162l-16 2q2 0 2 162q-193 6 -282 162q-29 61 -29 98zM160 983q0 -43 20 -84q29 -53 68 -76q43 -27 102 -47v449q-47 -12 -96 -49q-43 -35 -68 -89q-26 -59 -26 -104z M362 18q141 0 191 21v510q-39 4 -109 26q-76 27 -82 31v-588zM362 774q16 -2 58 -18q18 -8 69 -23q27 -8 64 -8v520q-33 6 -72 6q-80 0 -119 -22v-455zM563 47q59 12 115 68q94 94 94 198q0 43 -18 93q-43 100 -191 139v-498z" />
<glyph unicode="&#x26;" horiz-adv-x="1122" d="M51 362q0 115 66 218q66 109 223 168q-55 170 -55 274q0 117 51 211q47 84 174 117q29 4 33 4q68 0 133 -60q72 -72 72 -168q0 -43 -15 -102q-23 -86 -84 -145q-59 -55 -143 -82l199 -435q33 49 40 99q14 80 21 145q10 98 20 137q23 84 78 107q39 23 76 22q31 0 57 -22 q39 -33 39 -76v-2q0 -2 -1 -5t-2 -8t-1 -11q-8 -16 -33 -39q-20 -18 -45 -25q-41 0 -63 16q-23 18 -27 48q0 57 33 77q-12 6 -23 6q-41 0 -59 -63q-20 -63 -31 -152l-20 -163q-9 -80 -31 -136q70 -180 180 -251q12 -6 25 -7q35 0 94 78q18 25 25 78q4 43 10 64q6 -20 6 -60 q-2 -78 -49 -137q-59 -78 -152 -84q-51 0 -96 22q-39 20 -69 54q-23 25 -66 86l-70 -60q-20 -16 -65 -49q-31 -23 -74 -39q-37 -14 -80 -14q-25 0 -49 6q-127 31 -203 162q-49 95 -49 196zM166 487q0 -45 12 -84q51 -147 109 -233q63 -94 166 -94q82 6 163 106l-247 516 l-23 29q-88 -49 -100 -59q-35 -25 -56 -70q-24 -50 -24 -111zM391 1143q0 -61 17 -111q20 -63 53 -133l19 -44l14.5 -33.5t7.5 -14.5q104 51 157 113q57 66 60 159q0 68 -12.5 113t-51.5 84q-57 53 -141 53q-86 -40 -104 -86q-19 -51 -19 -100z" />
<glyph unicode="'" horiz-adv-x="305" d="M45 1237q0 15 6 31q25 68 88 69q33 0 70 -16q33 -14 39 -49q8 -33 8 -80q0 -182 -166 -342h-16l27.5 35.5l25.5 34.5q28 37 49 73q25 41 35 76q12 41 12 92q-31 -33 -76 -33q-27 0 -51 19q-51 39 -51 90z" />
<glyph unicode="(" horiz-adv-x="356" d="M12 518q0 236 101 463q35 84 65 141q31 59 72 117q37 51 94 113q-2 -37 -43 -131q-43 -98 -45 -109q-53 -160 -76 -297q-25 -151 -24 -301q0 -141 20 -270q20 -127 65.5 -260.5t110.5 -239.5q-40 15 -67 49q-33 41 -72 98q-94 131 -150 297q-51 156 -51 330z" />
<glyph unicode=")" horiz-adv-x="356" d="M-10 1346q39 -12 65 -46q31 -37 74 -100q94 -133 147 -297q51 -156 52 -328q0 -240 -99 -466l-67 -142q-29 -57 -72 -116.5t-94 -110.5q4 45 43 127q25 53 47 110q53 158 76 293q25 152 24 303q0 141 -20 271q-18 113 -68 262q-40 125 -108 240z" />
<glyph unicode="*" horiz-adv-x="411" d="M18 1059q6 29 23 35q15 6 61 18q47 12 64 33q-2 20 -23 31q-8 4 -53 12q-39 8 -47 10q-14 6 -14 25q0 8 10 34q12 6 22 7q18 0 29 -9q16 -12 35 -30q10 -10 35 -29q16 -12 26 -14q6 14 7 32q0 6 -9 48q-6 31 -6 43q0 31 27 45q43 0 43 -29q0 -8 -10.5 -49t-10.5 -58 q0 -18 6 -32q14 0 29 10q8 6 33 31q16 16 37 32q16 12 26 13q20 0 39 -31q-4 -33 -24 -41q-23 -10 -64 -18.5t-61 -22.5q6 -18 24 -25q37 -12 54 -16q33 -8 53 -16q16 -6 16 -22.5t-26 -43.5q-25 0 -41 12l-41 41q-33 33 -47 37q-14 -12 -15 -35q0 -12 10.5 -53t10.5 -51 q0 -27 -62 -27q-8 10 -8 33q0 20 8.5 47t8.5 49q0 15 -7 31q-18 0 -32 -12q-33 -27 -37 -31q-14 -16 -33 -31q-14 -10 -27 -10q-21 0 -39 27z" />
<glyph unicode="+" horiz-adv-x="643" d="M47 631q14 23 27 67q14 51 16 64h158v217q20 -23 63 -33q47 -10 70 -10v-174h225q-25 -20 -31 -62q-8 -57 -8 -69h-186v-215q-35 23 -70 30q-45 10 -63 13v172h-201z" />
<glyph unicode="," horiz-adv-x="409" d="M98 100q0 15 6 31q23 66 89 72q39 0 69 -17q33 -18 39 -51q8 -33 8 -80q0 -180 -166 -340h-16l27.5 37t27.5 35q23 31 47 70q23 37 35 77q12 43 12 91q-35 -31 -75 -31q-33 0 -51 18q-52 39 -52 88z" />
<glyph unicode="-" d="M82 631q14 20 29 67q10 37 14 64h518q-23 -18 -31 -57q-10 -45 -10 -64z" />
<glyph unicode="." horiz-adv-x="368" d="M92 104q0 43 29 72t72 29t71.5 -29t28.5 -72q0 -45 -29 -71q-33 -29 -71 -29q-43 0 -72 28.5t-29 71.5z" />
<glyph unicode="/" horiz-adv-x="1206" d="M55 0l1008 1352h88l-1001 -1352h-95z" />
<glyph unicode="0" horiz-adv-x="888" d="M41 666q0 156 39 297t115 264q41 59 108.5 92t145.5 33q121 0 192 -80q71 -77 117 -172t67 -203q23 -113 23 -217q0 -274 -111 -508q-33 -70 -98.5 -113t-138.5 -55q-37 -4 -43 -4q-96 0 -174 57.5t-131 147.5q-55 102 -84 221q-27 113 -27 240zM225 764q0 -12 1 -60.5 t1 -82.5q0 -33 1 -93.5t1 -91.5q0 -33 1 -84t1 -69q0 -70 25 -127q23 -55 72 -84q76 -41 131 -41q66 0 141 47q51 33 51 239q0 61 -4 336q-4 260 -10 381q-10 178 -21 217q-6 25 -61 56q-51 29 -111 28q-18 0 -38 -6q-59 -18 -105 -47q-51 -31 -53 -61q-23 -215 -23 -457z " />
<glyph unicode="1" horiz-adv-x="647" d="M39 2v23h201v1058q-31 -39 -103 -96q-51 -43 -98 -76q0 9 31 37q31 27 39 39q49 59 77 111l72 133l51 102q12 23 47 23q18 0 29 -8q12 -8 12 -21v-1302h203v-23h-561z" />
<glyph unicode="2" horiz-adv-x="854" d="M31 936q0 119 65 225q51 84 117 131q63 45 156 58q49 4 53 4q111 0 201 -60q86 -57 125 -166q23 -63 22 -137q0 -137 -76 -280q-77 -144 -202 -295l-232 -279q338 0 481 6q41 4 41 138v63q0 16 -1 37.5t-1 26.5q0 41 2 51h17l24 -453q-6 -10 -145 -10q-10 0 -227 4 q-109 2 -240 2q-6 0 -25.5 -1t-33.5 -1h-50l217 240q61 71 136 178q68 98 116 227q45 117 45 252q0 49 -2 64q-8 137 -43 229q-33 90 -129 119q-43 12 -84 12q-94 0 -163 -70q-123 -120 -123 -264q0 -45 12 -96q35 -102 113 -129q16 -6 51 -6q80 0 110 55q33 53 33 131 q0 102 -61 248q92 -117 92 -268q0 -117 -57 -207q-29 -49 -115 -66q-113 0 -168 94q-51 89 -51 193z" />
<glyph unicode="3" horiz-adv-x="874" d="M37 313q0 51 37 101q31 40 80 43q23 0 36 -8q55 -22 62 -62q0 -76 -43 -100q-23 -14 -51 -15q-25 0 -45 15l-13 12q-2 2 -4 5t-4 5t-4 2q-8 4 -14 4q0 -80 43 -147q39 -61 106 -102q94 -51 187 -52q82 0 149 43q117 74 117 246q0 39 -21 223q-12 111 -102 152 q-43 16 -174 16h-88q-18 0 -44 -1t-34 -1v23h55q12 0 34 -1t30 -1q184 0 250 59q88 80 88 209q0 133 -88 270q-27 45 -76 61.5t-115 16.5q-86 0 -158 -47q-74 -49 -120 -127q-18 -33 -19 -70q0 -16 6 -34q35 41 119 41q55 -23 55 -97q-4 -74 -71 -90q-84 0 -119 62 q-23 45 -23 90q0 61 39 125q43 74 103 112q63 41 149 54q35 8 84 8q76 0 139 -25q70 -27 115 -71q51 -51 78 -119q27 -74 27 -127q0 -63 -27 -119q-55 -127 -242 -184q223 -51 285 -219q23 -68 23 -117q0 -96 -72 -205q-117 -172 -336 -172q-58 0 -117 12q-94 23 -162 88 q-74 70 -102 164q-8 18 -8 51z" />
<glyph unicode="4" horiz-adv-x="866" d="M31 291q80 111 147 235q90 162 139 336q47 170 48 344q0 68 -7 140q72 -12 107 -13q53 0 90 19q-6 -180 -76 -361q-70 -182 -162 -323q-104 -164 -245 -353h381v447q139 68 168 199l-3 -639q68 0 113 45q39 39 49 79q8 33 33 160h16l-2 -313h-209v-264l191 -6v-23h-535 v23h179v270z" />
<glyph unicode="5" horiz-adv-x="808" d="M37 299q0 37 10 68q14 61 78 73q109 0 119 -67q0 -71 -49 -92q-15 -6 -31 -7q-33 0 -60 21q-28 22 -36 49q-12 -33 -13 -63q0 -84 84 -172q90 -96 209 -97q47 0 96 19q98 39 138 125q39 84 39 213q0 71 -19 245q-14 160 -145 203q-35 10 -76 10q-88 0 -166 -47 q-45 -27 -65 -63q-16 -31 -54 -121h-14q18 332 18 512q0 113 -4 215q158 -47 269 -47q119 0 219 43q18 6 39 16q8 4 28 17q-16 -68 -69.5 -121t-137.5 -86q-57 -23 -118 -23q-70 0 -197 41l-12 -467q80 154 264 154q8 0 70 -4q182 -23 262 -182q59 -125 59 -238 q0 -66 -22 -143q-72 -225 -283 -271q-49 -14 -111 -14q-143 0 -231 98q-88 94 -88 203z" />
<glyph unicode="6" horiz-adv-x="839" d="M41 653q0 256 100 451q117 242 322 248q174 0 235 -140q23 -61 23 -88q0 -35 -16 -63q-31 -53 -74 -64q-100 0 -119 64q0 6 -1 12t-2 9t-1 5q0 37 33 68q37 37 73 37q31 0 56 -33q1 6 3 15q1 6 1 8q0 31 -43 86q-49 61 -146 61q-35 0 -45 -2q-125 -8 -159 -110 q-78 -256 -78 -484q0 -4 1 -15t1 -20v-32q35 57 78 106q35 39 96 59q43 14 96 15q123 0 209 -92q123 -127 123 -297q0 -86 -27 -160q-33 -113 -96 -188q-66 -78 -172 -101q-33 -8 -76 -8q-133 0 -223 109q-86 104 -129 245t-43 299zM203 467q0 -181 98 -387q27 -55 131 -55 q41 0 78 6q76 12 100 82q20 61 25 190q0 14 4 92q2 39 2 88q0 190 -76 293q-33 49 -106 49q-92 0 -150 -63q-106 -109 -106 -295z" />
<glyph unicode="7" horiz-adv-x="792" d="M35 928l2 413l213 5q37 2 120 3t126 1q92 2 262 2l4 -23q-162 -227 -250 -510q-86 -276 -86 -577q0 -111 14 -242q-39 25 -106 25q-59 0 -109 -19q12 207 72 418q61 215 145 395q92 199 209 387l-20 4h-522q-47 -29 -48 -129q0 -31 2.5 -55.5t2.5 -50.5q0 -10 -5 -47h-26 z" />
<glyph unicode="8" horiz-adv-x="874" d="M39 342q0 166 184 305q10 8 47 27q6 4 13.5 7t11.5 4t7 3l3 2q-244 129 -244 344q6 88 65.5 164t147.5 121q76 35 156 35q98 0 195 -51q92 -49 135 -136q35 -70 35 -135q0 -90 -58 -166q-53 -63 -166 -121q246 -143 260 -327q4 -53 5 -60q0 -182 -160 -286 q-111 -74 -248 -74q-111 0 -182 45q-201 121 -207 299zM152 1124q2 -92 61 -163q55 -68 139 -113q82 -43 193 -90q74 33 104 88q45 72 45 174q0 96 -39 180q-33 68 -92 100q-63 35 -139 35q-90 0 -162 -45q-110 -68 -110 -166zM158 389q0 -121 32 -231q14 -49 56 -78 q37 -27 110 -49q37 -6 80 -6q176 4 256 102q39 45 39 133q0 2 -4 76q-12 98 -72 160q-57 61 -135 96q-92 43 -192 76q-51 -20 -86 -41q-33 -20 -52 -56q-32 -65 -32 -182z" />
<glyph unicode="9" horiz-adv-x="849" d="M35 899q0 229 170 375q92 80 192 80q39 0 99 -17q132 -37 215 -196q98 -211 98 -463q0 -125 -23 -225q-27 -117 -71 -205q-51 -98 -119 -164q-90 -88 -209 -88q-55 0 -104 16q-121 41 -148 131q-14 43 -14 74q0 29 16 72q27 61 109 61q66 -6 84 -61q4 -12 4 -31 q0 -63 -60 -88q-14 -8 -32 -8q-39 0 -76 37q-6 -9 -6 -25q0 -28 24 -68q53 -92 189 -94q111 0 159 62q51 66 74 133q23 63 29 137q6 68 6 156v47q0 80 2 102l-4 17q-39 -74 -113 -125q-72 -51 -153 -52q-100 2 -189 70q-84 63 -118 160q-31 86 -31 180zM182 909 q0 -205 94 -348q37 -53 105 -53q23 0 59 10q123 37 156 123q51 117 51 240q0 178 -121 407q-25 49 -98 49q-27 0 -61 -8q-88 -25 -121 -104q-64 -146 -64 -316z" />
<glyph unicode=":" horiz-adv-x="382" d="M104 104q0 43 29 72t72 29q39 0 71 -29q31 -29 31 -72t-31 -71q-33 -29 -71.5 -29t-71.5 29q-29 26 -29 71zM104 801q0 43 29 71.5t72 28.5q39 0 71 -29q31 -29 31 -71.5t-31 -71.5q-33 -29 -71 -29q-43 0 -72 29t-29 72z" />
<glyph unicode=";" horiz-adv-x="290" d="M39 801q0 43 28.5 71.5t71.5 28.5t72 -28.5t29 -71.5t-29 -72t-72 -29q-45 0 -71 29q-29 33 -29 72zM45 100q0 15 6 31q23 66 88 72q39 0 70 -17q33 -18 39 -51q8 -33 8 -80q0 -180 -166 -340h-16l27.5 37t27.5 35q33 45 47 70q25 43 35 77q12 43 12 91q-34 -31 -73 -31 q-31 0 -54 18q-51 39 -51 88z" />
<glyph unicode="=" horiz-adv-x="616" d="M82 631q14 20 29 67q10 37 14 64h518q-23 -18 -31 -57q-10 -45 -10 -64zM82 909q14 20 29 68q10 35 14 65h518q-20 -18 -31 -59q-10 -45 -10 -63z" />
<glyph unicode="?" horiz-adv-x="794" d="M86 1061q0 90 68 176q43 55 98 84q51 27 127 31q223 0 299 -187q23 -55 22 -114q0 -80 -43 -164q-35 -57 -155.5 -159.5t-173.5 -164.5q-57 -68 -58 -155q0 -43 19 -95q8 -31 41 -49q31 -18 61 -18q23 0 39 12q47 41 66 66q14 18 24 82q0 27 -4 67q-2 16 -10 59 q-6 31 -6 39q35 -33 39 -122q0 -100 -50 -162q-49 -53 -96 -54q-27 0 -43 9q-74 25 -96 100q-12 43 -12 80q0 78 39 137q45 70 118 152q72 80 119 155q39 63 39 148l-4 45l-8 59q-2 27 -10 58q-4 16 -21 49q-12 25 -37 43q-63 55 -139 55q-78 0 -162 -90q-53 -59 -53 -127 q0 -25 6 -51q25 -96 96 -121q18 -8 49 -8q33 0 70 18q70 33 70 125q0 6 -4 59q-6 47 -35 91q59 -53 59 -125q0 -115 -20.5 -168.5t-91.5 -75.5q-35 -12 -64 -12q-37 0 -76 20q-29 16 -47 41q-12 16 -33 72q-16 43 -16 90zM283 98q0 43 28.5 72t73.5 29q43 0 71.5 -29 t28.5 -72q0 -45 -28.5 -73.5t-71.5 -28.5q-41 0 -71.5 30.5t-30.5 71.5z" />
<glyph unicode="A" horiz-adv-x="1294" d="M59 0v23q156 0 197 120l125 404l162 528q70 227 82 275q3 6 12 6q16 0 27 -8q12 -8 18 -23l156 -483l176 -549l88 -270h166l-6 -23l-541 -2l2 25h190l-120 411h-398l-96 -299q0 -6 -1 -12t-2 -9t-1 -5q0 -86 215 -86v-23h-451zM406 465h376l-194 622z" />
<glyph unicode="B" horiz-adv-x="1155" d="M57 -2v25h205v1306h-190v25h727q129 0 221 -174q37 -70 37 -152q0 -51 -15 -94q-22 -65 -67 -105q-51 -43 -105 -63q-70 -25 -131 -41q137 -35 222 -80q86 -47 122 -139q27 -74 27 -141q0 -96 -55 -189q-49 -82 -123 -123q-70 -39 -164 -49q-82 -8 -266 -8h-170 q-90 0 -159 1t-116 1zM432 23q6 0 29.5 -1.5t40.5 -1.5h65q98 0 172 23q70 20 127 88q100 119 101 252q0 104 -66 192q-84 117 -190 127q-86 4 -150 5h-129v-684zM432 735q41 0 76 -2t78 -2q174 0 254 90q72 82 71 199q0 96 -53 186q-49 82 -129 103q-84 23 -201 22h-96 v-596z" />
<glyph unicode="C" horiz-adv-x="962" d="M43 688q0 217 98 389q35 63 86 131q41 53 101 92q61 41 143 56q45 4 49 4q135 0 266 -156l119 139l15 -6v-479h-15q-94 340 -303 463q-31 18 -88 18q-82 0 -121 -39q-96 -102 -137 -233q-39 -125 -39 -295q0 -57 10.5 -204.5t10.5 -161.5q10 -160 51 -259 q43 -102 153 -151q41 -14 82 -14q68 0 117 30q78 59 127 140q43 70 78 167q33 90 59 205h13v-553q-23 8 -39 29q-15 18 -37 55q-14 25 -43 54l-13 8q-123 -156 -251 -156q-117 0 -218 72q-98 70 -155 180q-119 231 -119 475z" />
<glyph unicode="D" horiz-adv-x="1214" d="M55 -2v25h203l-2 1306h-190v23h673q90 0 172 -54q72 -47 136 -147q59 -94 90 -211q29 -113 32 -242q0 -252 -67.5 -403.5t-224.5 -228.5q-129 -68 -283 -68h-539zM436 23h172q109 0 199 49q86 47 104 137q61 295 62 520q0 262 -78 453q-16 41 -59 75q-37 33 -93 52 q-51 18 -102 18h-205v-1304z" />
<glyph unicode="E" horiz-adv-x="1105" d="M49 -4v27h191l18 22v1274q-27 4 -98 8q-43 2 -101 2v21h973v-453h-16q-6 78 -17 150q-4 31 -26 102q-16 49 -58 98q-39 45 -98 60q-80 20 -194 20q-2 0 -26 -1t-44 -1h-100l-29 -6v-569h96q20 0 49 -1t37 -1q53 0 82 47q27 45 37 112l20 125l11 -2v-610h-13l-14 100 q-8 53 -16 84q-12 39 -39 70q-25 27 -68 26h-182v-673q49 0 88 -2t88 -2q100 0 174 20q72 20 135 80q37 37 64 86q25 46 37 92t18 105q8 57 14 110h13v-518z" />
<glyph unicode="F" horiz-adv-x="1105" d="M49 0v20q53 0 131 18.5t78 76.5v1220h-188v17l981 2v-537h-19q-16 182 -63 301q-51 127 -176 191q-68 29 -328 28h-43v-612h123q90 0 141 94q49 92 68 203h10v-602h-12l-13 63q-10 57 -28 101q-22 49 -62 86q-39 37 -102 37h-125v-596q0 -53 51 -72t139 -19v-20h-563z " />
<glyph unicode="G" horiz-adv-x="1212" d="M55 668q0 238 82 438q45 113 135 184q88 70 199 82q8 0 16.5 1t14.5 2t10 1h6q168 0 283 -145q23 10 51 39l55 57q20 20 47 29v-529h-12q-43 147 -68 222q-23 66 -77 151q-51 78 -142 129q-70 39 -147 39q-94 0 -137 -63q-61 -90 -90 -168t-39 -174q-10 -98 -11 -209 q0 -154 9 -260q10 -137 28 -226q20 -100 60 -184q16 -35 75.5 -59.5t124.5 -24.5q47 0 90 12q104 31 146 152q39 117 39 272q0 70 -2 94q-2 35 -6 52h-213v24h575v-24h-221l2 -605q-33 72 -49 97q-18 28 -37 43q-8 6 -19.5 16t-25.5 21q-86 -160 -225 -177q-45 -4 -52 -4 q-170 0 -299 146q-90 100 -133 243q-43 146 -43 306z" />
<glyph unicode="H" horiz-adv-x="1388" d="M68 1352h557v-23h-193l-2 -555h524v551l-194 2v21h258q55 0 157.5 1t145.5 1v-25h-203v-1302h209v-23h-567l-2 23h196v720h-522v-720h193v-25h-551v25h192v1306h-196z" />
<glyph unicode="I" horiz-adv-x="630" d="M37 -2v25h186v1306h-186v23h559v-23h-193v-1306h193v-25h-559z" />
<glyph unicode="J" horiz-adv-x="837" d="M35 221q0 55 22 96q33 57 101 58q74 0 98 -64q6 -18 6 -39q0 -37 -20 -59q-31 -37 -82 -41q-16 0 -39 6q-14 4 -27 12q-4 2 -11 7.5t-9 7.5q-8 -8 -8 -29q0 -23 20 -63q49 -96 184 -97q53 4 105 29q55 29 55 64v1220h-188v23h559v-23h-205v-1050q0 -145 -117 -232 q-70 -51 -164 -51q-37 0 -102 8q-100 12 -156 119q-22 45 -22 98z" />
<glyph unicode="K" horiz-adv-x="1298" d="M61 0v23h201v1304h-199v23h568v-23l-213 -2v-692l467 557q18 23 18 53.5t-22 56.5q-20 25 -54 27h-90v23q20 0 96 -1t132 -1h239v-15q-176 -16 -280 -143l-129 -152l-125 -153l401 -862h166l-2 -25q-401 0 -526 2v23h165l-315 716l-141 -168v-548h203v-23h-560z" />
<glyph unicode="L" horiz-adv-x="1110" d="M57 -2v22h207v35v1274h-184l-2 25h540v-25h-186v-1306q152 4 236 14t163 51q74 37 111 115q68 137 100 407h15v-610z" />
<glyph unicode="M" horiz-adv-x="1490" d="M72 1327v23h407l275 -1014h12l293 1012l356 2v-23h-182v-1304h190v-23h-551v23h201v1249l-115 -418l-159 -565q-82 -289 -94 -289q-8 0 -62 172l-133 453l-121 417l-61 218v-1149q0 -35 22 -54q20 -18 60 -24q45 -8 71 -8q14 0 34 -1t24 -1l2 -27l-461 4v23q203 0 203 90 l2 1128q0 41 -33 55q-39 18 -78 21q-45 4 -102 10z" />
<glyph unicode="N" horiz-adv-x="1257" d="M57 0v27q72 0 101 4q51 6 75 67q27 68 33 148q8 115 8 198v807q0 78 -208 78v23h340l548 -1004v842q0 139 -196 139v23h434v-23q-207 0 -207 -119v-1210h-24l-658 1200v-1007q0 -113 137 -156q16 -4 49 -8q18 -2 41 -2v-29z" />
<glyph unicode="O" horiz-adv-x="1040" d="M29 684q0 255 123 442q135 205 368 211q98 0 176 -57q80 -59 140 -145q63 -94 96 -226q33 -129 33 -272q0 -256 -99 -420q-49 -80 -141 -149q-96 -72 -223 -72q-129 0 -190.5 41t-139.5 149q-47 74 -78 152q-37 94 -49 170q-16 94 -16 176zM221 614q0 -246 39 -389 q16 -59 41 -94q18 -27 64 -61q59 -45 131 -45q74 0 145 49q41 31 70 76q33 51 34 98q18 229 21 260q6 106 6 211q0 276 -55 463q-12 49 -70 88q-59 41 -125 41q-96 0 -157 -45q-57 -43 -74 -88q-35 -102 -51 -248q-19 -156 -19 -316z" />
<glyph unicode="P" horiz-adv-x="1116" d="M51 1327v23h94q20 0 61.5 2t59.5 2q20 0 56 1t53 1h82q132 0 233 -13q102 -12 182 -42.5t129.5 -92t61.5 -157.5q4 -49 4 -52q0 -150 -129 -272q-92 -86 -305 -86q-39 0 -219 12v-571q0 -59 209 -59v-23l-566 -2v25q49 0 119 12t70 57l-2 1235h-193zM414 684 q180 -16 207 -16q172 0 233 86q53 76 53 213q0 123 -39 237q-18 55 -77 82q-63 29 -136 35q-98 8 -166 8h-75v-645z" />
<glyph unicode="Q" horiz-adv-x="1075" d="M47 616q0 131 19 236q18 109 57 188q41 86 100 148q63 68 146 117q72 45 163 45q98 0 195 -54q98 -53 164 -143q125 -170 125 -457q0 -106 -23 -282q-12 -94 -75 -191q-66 -100 -156 -166q-92 -68 -191 -80l70 -67q63 -61 115 -98q45 -33 90 -33q22 0 43 12q39 23 49 47 q14 31 37 101q0 -135 -109 -197q-53 -33 -108 -33q-25 0 -72 10q-41 12 -70 39q-25 23 -71 76q-39 43 -70 72q-25 23 -59 22q-23 0 -51 -18q-57 -41 -64 -123h-8q-8 14 -8 33q0 20 26 71q12 25 35 37l55 29l48 23q-127 43 -220 137q-92 96 -137 221q-45 126 -45 278z M231 406q0 -113 23 -193q23 -78 82 -141q68 -68 192 -68q94 0 170 45q90 55 111 131q25 88 27 221q4 164 4 187q0 483 -119 663q-23 35 -76 54q-57 20 -115 20q-141 0 -202 -88q-61 -89 -80 -246q-16 -139 -17 -409v-97v-79z" />
<glyph unicode="R" horiz-adv-x="1343" d="M66 0v23h198v1306h-198v23h757q70 0 125 -45q52 -43 80 -117q37 -86 37 -182q0 -76 -29 -134q-25 -57 -69 -92q-49 -39 -90 -55q-20 -8 -127 -41q41 -12 114 -39q33 -12 70 -43q39 -31 55 -78q27 -68 39 -196q12 -117 29 -187q14 -59 76 -116q12 -12 73 -13q8 0 23.5 1 t21.5 1q8 0 18.5 1t12.5 1v-22h-86q-106 0 -180 24q-72 25 -107 105q-35 76 -49 231q-15 163 -37 234q-23 72 -96 72h-287v-639h166v-25zM440 700q2 0 11.5 -1t17.5 -1h51q117 0 209 15q98 14 123 53q61 92 61 238q0 100 -32 186q-31 78 -111 106q-78 27 -201 27h-65 q-16 0 -38 -1t-26 -1v-621z" />
<glyph unicode="S" horiz-adv-x="897" d="M39 0v543h14q20 -121 60 -213q45 -106 114 -183q72 -78 174 -114q52 -18 105 -19q121 0 205 86q41 41 59 86q23 55 23 101q0 57 -37 96q-53 55 -164 115l-252 135q-143 78 -217 164q-76 88 -76 209q0 80 41 184q61 143 262 162q115 0 193 -41q74 -39 131 -121 q68 49 121 139l2 -487l-11 4q-27 115 -53 192q-25 74 -67 133q-49 68 -129 111q-92 49 -172 49q-49 0 -86 -14q-121 -47 -150 -119q-29 -70 -29 -106q0 -46 31 -74q88 -84 219 -154l252 -131q125 -66 190.5 -145.5t65.5 -222.5q0 -39 -2 -52q-18 -186 -199 -278 q-72 -37 -151 -37q-129 0 -244 84q-25 18 -51 45q-23 23 -39 43q-37 -27 -76 -82q-26 -37 -57 -88z" />
<glyph unicode="T" horiz-adv-x="1089" d="M55 797v557h987v-549q-2 0 -4 -4q-3 -6 -6 -6q-2 0 -6 10q-22 154 -43 246q-23 100 -65 161q-47 70 -125 103q-31 14 -78 14l-13 -1q-12 -1 -22 -1h-51l4 -1304h209v-23h-582v23h199l-2 1304h-39q-8 0 -20.5 1t-16.5 1q-45 0 -70 -12q-72 -37 -118 -92q-41 -49 -68 -123 q-23 -61 -33 -117q-2 -14 -6 -39.5t-9 -70l-9 -78.5h-13z" />
<glyph unicode="U" horiz-adv-x="1318" d="M74 1329l2 23h557v-23h-203v-1116q0 -63 41 -107q43 -45 107 -69q59 -20 124 -21q96 0 180.5 39t114.5 107q23 61 23 166v854q0 152 -172 151q-6 0 -17.5 -1t-15.5 -1q-6 0 -12 -1t-8 -1v25h477v-23q-217 0 -217 -137v-924q0 -138 -142 -227q-78 -47 -211 -47 q-96 0 -172 22q-84 25 -139 68q-125 94 -125 231v1012h-192z" />
<glyph unicode="V" horiz-adv-x="1282" d="M57 1327v27l561 -2v-23h-215l316 -1034l18 -16l224 911q0 6 1 11t2 9t1 7.5v5.5q0 106 -205 106v25l459 -2v-23l-4 1q-3 1 -7 1q-2 0 -9 1t-11 1q-55 0 -119 -51q-61 -49 -98 -188l-66 -263l-112 -448l-97 -371q-6 -23 -32 -22q-12 0 -17 10l-119 375l-174 563l-121 389 h-176z" />
<glyph unicode="W" horiz-adv-x="1730" d="M57 1329v23h527v-23h-187l277 -1069l184 834l-51 184q-14 51 -158 51v25l490 -2v-23h-185l291 -1024l189 871q4 33 4 34q0 119 -193 119l2 23h426v-23q-77 0 -135 -24q-57 -25 -78 -115l-254 -1184q-8 -4 -22 -4q-6 0 -13.5 -1t-9.5 -1l-289 1016l-233 -1020l-64 12 l-335 1321h-183z" />
<glyph unicode="X" horiz-adv-x="1288" d="M57 4v21q190 0 265 143l258 498l-349 663h-149v23h518v-23h-197l277 -506l211 406q12 25 12 41q0 39 -47 49q-51 10 -133 10v23h436v-21q-184 0 -233 -98l-234 -442l395 -768h146v-25l-549 -2v29h217l-313 608l-242 -471q-16 -39 -16 -56q0 -84 188 -83v-23z" />
<glyph unicode="Y" horiz-adv-x="1282" d="M57 1327v21h574v-21h-215l315 -625l207 480q14 31 14 57q0 90 -192 90v23h465v-23q-180 0 -260 -180l-222 -500v-626h211v-27l-569 4v23h195v649l-340 655h-183z" />
<glyph unicode="Z" horiz-adv-x="940" d="M39 829v523h819l-635 -1329q6 0 34 -1.5t48 -1.5h84q138 0 234 31q92 29 145 125q31 55 53 127q18 59 39 166q20 115 27 135l18 -2l-4 -602h-856l119 248l112 235l170 357l230 483q-51 0 -92 2t-95 2q-184 0 -266 -76q-53 -51 -86 -118q-37 -76 -49 -136 q-23 -106 -33 -168h-16z" />
<glyph unicode="\" horiz-adv-x="1206" d="M55 1343h95l1001 -1351h-88z" />
<glyph unicode="^" horiz-adv-x="995" d="M219 1006l289 297l258 -297h-170l-147 188l-181 -188h-49z" />
<glyph unicode="`" horiz-adv-x="845" d="M262 1196q0 39 4 59q2 10 4 24.5t4 18.5q0 -20 76 -81q84 -68 156 -117q78 -55 117 -80l-349 108q-12 25 -12 68z" />
<glyph unicode="a" horiz-adv-x="831" d="M39 274q10 115 117 183q41 25 153 53q8 2 144 39q33 8 34 39q10 113 11 127q0 154 -123 182q-80 0 -135.5 -16.5t-83.5 -57.5q2 -16 26 -28q33 -16 45 -25q18 -12 21 -33q0 -45 -10 -69q-8 -20 -41 -23q-49 0 -74 8q-27 8 -39 41q-6 23 -6 39q0 63 63 115q84 72 203 72 q55 0 123 -23q115 -41 139 -135q37 -123 37 -291q0 -55 -2 -84q-2 -14 -3 -47t-1 -51l-6 -123q-2 -43 -2 -105q3 -31 49 -30q29 0 47 12q49 37 55 160h17q-2 -76 -23 -127q-20 -53 -72 -68q-35 -10 -57 -10q-68 0 -100 49q-39 59 -51 127q-72 -150 -183 -170q-31 -6 -59 -6 q-74 0 -129 49q-84 80 -84 227zM176 266q0 -74 29 -176q6 -20 35 -41q27 -18 57 -18q27 0 47 12q53 35 84 88q29 47 41 113q12 61 12 133q2 37 2 70.5v66.5l-20 18q-28 -18 -80 -30q-29 -6 -52.5 -13.5t-37.5 -11.5q-37 -8 -57 -28q-60 -66 -60 -183z" />
<glyph unicode="b" horiz-adv-x="925" d="M41 1329v25l301 -2l-2 -594q102 154 256 153q80 0 149 -59q68 -57 105 -164q39 -109 41 -233q0 -115 -19 -187q-18 -68 -63 -123t-131 -122q-34 -31 -92 -31q-49 0 -99 20q-45 16 -90 72q-37 43 -61 86l-2 -170l-281 -2v25h148v1306h-160zM338 442q0 -141 16 -198 q18 -66 74 -152q39 -68 158 -67q82 14 98 84q47 182 47 356q0 170 -39 332q-20 88 -96 88q-57 0 -111 -27q-51 -25 -90 -72q-37 -43 -43 -94q-10 -111 -14 -250z" />
<glyph unicode="c" horiz-adv-x="724" d="M33 461q0 268 211 405q65 43 153 43q77 0 142 -37q61 -35 84 -106q23 -78 22 -100q0 -41 -29 -66q-45 -35 -77 -35q-18 0 -35 8q-57 25 -58 82q0 12 11 37q25 59 80 60q31 0 57 -21q0 100 -113 150q-45 16 -75 16q-43 0 -95 -27q-72 -43 -94 -141q-20 -94 -20 -262 q0 -98 4 -197q2 -72 18 -131q14 -55 49 -84q49 -43 133 -43q43 0 74 8q174 39 209 306h10q-14 -221 -149 -297q-70 -39 -152 -39q-78 0 -131 33q-119 68 -174 178t-55 260z" />
<glyph unicode="d" horiz-adv-x="923" d="M41 465q0 88 27 176q71 243 258 270q33 4 34 4q41 0 74 -18q37 -20 80 -57q10 -8 27 -29q12 -15 30 -43q18 -31 19 -31v592h-150v23l289 2l2 -1331h154v-23l-295 -2v180q-72 -139 -168 -178q-31 -12 -64 -12q-86 0 -153 71q-76 78 -121 189q-43 104 -43 217zM203 442 q0 -98 2 -125q2 -96 16 -159q12 -59 55 -109q34 -37 86 -37q35 0 76 23q63 41 109 108q41 61 41 123l2 377q0 37 -23 86q-18 41 -63 82q-37 35 -72 57q-27 18 -65 19q-16 0 -48 -10q-116 -46 -116 -435z" />
<glyph unicode="e" d="M33 422q0 49 6 94q12 84 37 152q25 66 71 123q45 55 121 92q49 25 97 24q35 0 94 -20q53 -18 88 -56q31 -33 67 -94q61 -101 62 -270h-490q0 -215 29 -346q20 -76 137 -107q25 -6 54 -6q111 0 174 82q74 89 92 191h14q-37 -209 -170 -267q-49 -23 -110 -22q-80 0 -156 39 q-217 104 -217 391zM186 494h351v53q0 12 1 30.5t1 22.5q0 176 -72 254q-43 43 -96 43q-45 0 -80 -29q-68 -51 -86 -131q-18 -78 -19 -192v-51z" />
<glyph unicode="f" horiz-adv-x="657" d="M27 4v21l159 2v833l-155 2v27h155q0 123 9 190q9 77 43 148q35 72 108 108q41 20 88 21q57 0 103 -27q43 -27 69 -78q20 -29 21 -112q-6 -27 -29 -43q-20 -14 -47 -15q-23 0 -45 13q-37 20 -39 63q0 18 6 33q12 27 29 37q22 12 49 12q4 2 10 2q10 0 10 4q-31 72 -90 84 q-18 8 -51 8q-61 0 -84 -43q-31 -68 -31 -219q0 -6 1 -34.5t1 -51.5v-100l158 -2v-29h-158v-831l166 -2v-23z" />
<glyph unicode="g" horiz-adv-x="888" d="M39 -113q0 33 22 66q29 41 84 41q16 0 39 -8q57 -25 101 -86q-70 39 -101 39q-27 0 -41 -15q-41 -37 -41 -74q0 -18 11 -32q80 -102 264 -103q100 0 221 27q74 12 104 104q6 18 7 37q0 46 -31 86q-37 41 -76 51q-49 14 -90 15q-25 2 -53.5 2h-59.5q-12 0 -82 -4 q-35 -2 -79 -2q-141 0 -170 90q-6 18 -7 35q0 37 43 92q20 25 52 41q45 25 51 26q-119 113 -119 297q2 84 49 152q43 66 123 102q63 31 127 31q123 0 215 -98q74 82 164 82q76 -16 102 -80q8 -18 9 -35q0 -37 -25 -57q-22 -18 -49 -19q-29 0 -47 21q-14 14 -15 63 q4 27 19 39q16 14 55 23q-31 35 -72 34q-27 0 -47 -12q-25 -14 -34 -24q-16 -16 -27 -31q-14 -20 -17 -23q68 -111 72 -196q0 -84 -16 -133q-18 -53 -64 -103q-86 -86 -213 -96q-29 0 -86 22q-53 20 -80 21q-33 0 -65 -29q-27 -25 -27 -51q0 -18 11 -25q55 -49 161 -49 q33 0 97 6q43 4 96 5q113 0 176 -54q78 -68 78 -164q0 -35 -17 -84q-47 -125 -233 -151q-55 -6 -111 -6q-249 0 -344 147q-14 16 -14 47zM217 551q0 -94 14 -152q15 -61 43 -80q63 -39 117 -38q55 0 127 45q41 25 41 260q-2 127 -53 239q-20 51 -103 52q-43 0 -86 -17 q-47 -18 -71 -100q-23 -76 -27 -158q0 -2 -1 -11t-1 -16v-24z" />
<glyph unicode="h" horiz-adv-x="1024" d="M45 1303l2 22l289 2v-614q0 35 33 84q29 43 90 75q57 31 137 31q94 0 166 -45q68 -43 67 -156v-679h152v-27h-434v24h141v719q0 57 -24.5 100.5t-67.5 43.5q-61 0 -120.5 -33t-100.5 -102q-39 -66 -39 -168v-557h133v-25q-31 2 -172 2h-147q-27 0 -62 -1t-41 -1l4 25h142 v1280h-148z" />
<glyph unicode="i" horiz-adv-x="512" d="M49 885v24h287v-886h137v-25h-412v25h140v862h-152zM156 1255.5q0 38.5 28.5 67.5t67.5 29t67.5 -29t28.5 -67.5t-29 -67.5q-27 -27 -67.5 -27t-67.5 27q-28 29 -28 67.5z" />
<glyph unicode="j" horiz-adv-x="430" d="M-88 -143q0 25 12 51q25 53 72 53q40 0 67 -18q29 -18 35 -52q0 -76 -59 -98q-12 -4 -25 -4h-14q-2 0 -9 3t-14 3q-20 4 -22 4q4 -31 22 -45l58 -37q23 -14 67 -14q53 0 76 23q29 29 43 100q14 70 15 139v920h-162v22h280v-938q0 -84 -49 -162q-47 -74 -133 -102 q-37 -12 -76 -12q-72 0 -119 43q-65 62 -65 121zM211 1255.5q0 36.5 26.5 63.5t63.5 27q39 0 65.5 -27t26.5 -63.5t-26 -63.5q-29 -29 -66 -29q-35 0 -63 29q-27 27 -27 63.5z" />
<glyph unicode="k" horiz-adv-x="962" d="M43 -4v27h154v1277h-152v13q0 4 -1 7l-1 3h283v-907l309 366q25 29 24 52q0 45 -151 45v22h358l2 -22q-106 0 -198 -101l-170 -190l311 -565h109v-23h-383v23h116l-241 450l-84 -92v-358h125v-27h-410z" />
<glyph unicode="l" horiz-adv-x="532" d="M63 -2v25h136v1269h-131v25h266v-1294h151l-2 -25h-420z" />
<glyph unicode="m" horiz-adv-x="1536" d="M70 844v22h274v-170l35 52l17.5 23t17.5 22q6 8 43 45q20 20 47 36q57 35 117 35q70 0 118 -51q39 -41 58 -76q16 -31 26 -94q27 57 62 113q25 39 76 71q49 31 122 31q51 0 103 -31q55 -33 88 -86q35 -57 35 -127v-636h155v-23h-440v23h147v641q0 92 -26 153 q-27 63 -66 64q-72 0 -129 -45q-59 -45 -88 -111q-31 -68 -31 -129l-2 -573h125v-23h-401v23h147v573q0 2 1 17.5t1 27.5v49q0 86 -18 135t-74 56q-92 0 -153 -68q-113 -121 -113 -209v-581h131v-23h-403v23h133v821h-135z" />
<glyph unicode="n" horiz-adv-x="1030" d="M47 842q4 0 4 14q0 6 -4 10h295l-2 -174q47 74 76 111q31 41 82 71q49 31 110 31q63 0 116.5 -30.5t84.5 -83.5q33 -55 33 -113v-655h129v-23h-418v23h147l-2 659q0 70 -16 123q-16 51 -68 65q-16 8 -45 9q-74 0 -123 -70q-104 -137 -104 -248l-2 -538h135v-23l-422 -4 v27h148v819h-154z" />
<glyph unicode="o" horiz-adv-x="761" d="M43 438q0 123 39 231.5t117 176.5q76 68 182 67q108 0 184 -67q74 -63 115 -176q39 -104 39 -224q0 -111 -41 -217q-39 -102 -117 -167.5t-180 -65.5t-178 63q-77 65 -117 166q-41 102 -43 213zM186 449q0 -150 13 -238q12 -92 53 -139q43 -49 131 -49t131 49 q41 47 53 135q12 86 13 242q0 172 -11 245q-12 92 -55 144q-43 53 -131 53t-131 -49q-41 -47 -53 -140q-13 -87 -13 -253z" />
<glyph unicode="p" horiz-adv-x="917" d="M41 866v23h283v-144q35 74 94 127q61 55 139 56q98 0 166 -67.5t115 -180.5q41 -98 41 -207q0 -121 -50 -231q-49 -113 -133 -193q-57 -53 -137 -53q-46 0 -80 18q-100 51 -153 170v-442h147v-25h-428v25h131v1124h-135zM322 436q0 -123 20 -198q23 -86 78 -152 q59 -68 131 -68q35 0 55 15q76 51 94 145q18 95 19 258v90q0 108 -12 185q-12 74 -54 147q-27 45 -92 45q-23 0 -39 -4q-45 -14 -86 -47q-47 -39 -78 -86q-33 -53 -32 -98q0 -70 -2 -121.5t-2 -110.5z" />
<glyph unicode="q" horiz-adv-x="917" d="M25 473q0 106 41 207q53 119 116 182q66 66 164 66q53 0 100 -29q51 -31 80 -68q37 -45 54 -86v144h282v-23h-135v-1124h131v-25h-426v25h148v442q-55 -119 -156 -170q-34 -18 -80 -18q-84 0 -137 53q-82 78 -133 195q-49 110 -49 229zM184 436q0 -111 6 -178 q6 -70 31 -131t76 -94q20 -14 55 -15q78 2 131 68q63 80 80 156q18 82 19 204q0 6 -1 41t-1 64v117q0 51 -33 98q-34 49 -80 86q-41 33 -86 47q-16 4 -39 4q-68 0 -92 -45q-39 -68 -51 -147q-14 -90 -15 -185v-90z" />
<glyph unicode="r" d="M47 0v23h139v829h-139v22h279v-174q43 92 86 147.5t114 55.5q49 0 74 -8q28 -9 49 -37q35 -45 35 -84q0 -14 -6 -33q-18 -57 -72 -63q-35 0 -61 16q-25 16 -29 47q0 77 55 93q16 4 25 4q16 0 25 -2q16 -4 18 -5q0 35 -55 54q-18 6 -37 6q-53 0 -109 -49 q-111 -101 -110 -289v-530h145v-23h-426z" />
<glyph unicode="s" horiz-adv-x="659" d="M37 -2v358q39 -90 69 -149q35 -68 84 -119q51 -55 119 -76q45 -14 80 -14q53 0 88 27q33 23 60 65q25 40 24 80q0 35 -18 66q-53 82 -224 180q-166 96 -219 137t-53 129q0 47 19 90q47 117 190 135q59 0 100 -18q35 -16 80 -47q41 -29 60 -29q31 0 67 68h21v-316 q-43 106 -72 158q-39 68 -90 104q-84 59 -156 60q-45 0 -76 -25q-63 -49 -63 -117q0 -35 23 -57q53 -53 124 -90l156 -84q80 -43 131 -100.5t66 -141.5q0 -8 1 -18t2 -16.5t1 -8.5q0 -70 -39 -127q-41 -61 -100 -96q-47 -29 -103 -29q-90 0 -184 64q-16 12 -62 57 q-6 6 -14 6q-12 0 -25 -16q-14 -16 -28 -47l-21 -41z" />
<glyph unicode="t" horiz-adv-x="589" d="M29 874h155v289q41 6 76 35t49 70h15l2 -391l163 -3v-32h-165l2 -719q0 -45 39 -70q43 -27 90 -26q37 4 65 65q29 63 29 133h12q0 -109 -43 -176q-43 -59 -125 -59q-53 0 -98 22q-61 29 -86 76q-27 53 -27 135v619h-151z" />
<glyph unicode="u" horiz-adv-x="1013" d="M57 881v26h279v-764q0 -61 43 -94q45 -35 84 -35q16 0 26 6q88 45 145.5 137.5t57.5 190.5v537h-166v24h299v-886h146v-23h-277l-2 215q-63 -100 -130.5 -161.5t-174.5 -61.5q-197 25 -197 158v731h-133z" />
<glyph unicode="v" horiz-adv-x="970" d="M68 909h374v-24h-129l242 -676l199 588q4 12 4 28q0 59 -125 60v24h301v-24q-117 0 -148 -92l-276 -809h-29l-311 901h-100q-2 -1 -2 24z" />
<glyph unicode="w" horiz-adv-x="1257" d="M51 885v24h346v-26h-86q2 -6 41 -150q55 -190 72 -239q53 -166 72 -213l98 440l-53 164h-80v24h362l2 -24h-127l195 -654l166 564q0 6 2 13t2 9q0 41 -41 53q-47 14 -104 15v24h315v-24q-6 0 -12.5 2t-22.5 2q-90 0 -119 -96l-233 -811l-25 10l-207 665l-149 -653 q-2 -2 -7 -5t-7 -5q-8 -8 -11 -12l-272 903h-117z" />
<glyph unicode="x" horiz-adv-x="970" d="M49 885v24h387v-24h-131l195 -318l170 273q4 8 4 14q0 31 -123 31v24h326v-24q-39 0 -89 -8q-57 -10 -75 -37l-191 -301l301 -516h105v-27h-402v27h131l-219 395l-192 -320q-8 -10 -8 -26q0 -49 161 -49l2 -27h-350v27q102 0 156 83l215 340l-260 439h-113z" />
<glyph unicode="y" horiz-adv-x="964" d="M23 881v24h423v-24h-145l264 -668l197 551q6 22 6 37q0 84 -154 84v22h322l-4 -12l2 -6l2 -4q-47 0 -82 -19q-34 -18 -55 -73l-342 -965q-27 -88 -125 -129q-16 -6 -45 -6q-57 0 -103 35q-61 49 -61 110q0 29 8 45q25 63 88 64q20 0 37 -8q20 -8 33 -31q14 -25 14 -49 l-4 -25q-10 -29 -32.5 -45t-51.5 -16q-4 0 -29 4q-2 2 -6 2t-6 2q-8 4 -10 4q16 -37 47 -59q29 -20 70 -21q27 0 51 10q35 14 67 49q23 25 43 74q18 43 31 99q6 31 12.5 51t8.5 32l-347 861h-124z" />
<glyph unicode="z" horiz-adv-x="710" d="M31 -2q0 16 123 225l231 387l166 275q-55 6 -109 6q-135 0 -209 -49q-59 -41 -83 -111q-27 -74 -35 -170l-2 2q-2 2 -4 2q-4 4 -10.5 4t-12.5 -8v348h625l-521 -886q43 0 80 -2.5t82 -2.5q119 0 170 27q45 20 72 57q29 37 47 88l35 97l14 2l-2 -291h-657z" />
<glyph unicode="~" horiz-adv-x="833" d="M59 965q8 115 67.5 186.5t152.5 73.5q41 0 71.5 -18.5t73.5 -55.5q51 -45 76 -57q33 -18 78 -19q74 10 116 35q43 27 92 94q-29 -111 -73 -184q-39 -61 -125 -84q-29 -4 -31 -4q-39 0 -68 20q-27 18 -69.5 61.5t-73.5 65.5q-29 20 -78 25q-76 0 -115 -26.5t-94 -112.5z " />
<glyph unicode="&#xa2;" horiz-adv-x="729" d="M33 750q0 119 51 221q53 109 143 188q63 57 115 66l-2 121h33l2 -119q100 -10 155 -35q61 -27 95 -113q18 -51 18 -82q0 -34 -18 -67q-27 -45 -80 -45q-16 0 -43 10q-51 27 -51 82q0 15 6 31q12 29 35 47q20 18 49 18q35 0 63 -26q0 82 -86 131q-39 23 -96 22 q-2 0 -11.5 -1t-15.5 -1h-24v-860q141 0 204 61q80 80 103 244h20q-12 -178 -118 -264q-94 -76 -209 -76v-131h-33v129q-96 27 -172 109t-109 184q-24 80 -24 156zM174 735q0 -154 47 -295q12 -39 47 -63q37 -27 70 -33v842q-4 -2 -33 -19q-33 -18 -43 -28q-16 -16 -22 -37 q-66 -185 -66 -367z" />
<glyph unicode="&#xa5;" horiz-adv-x="1241" d="M41 1327v21h573v-21h-215l316 -625l207 480q14 29 14 57q0 90 -193 90v23h465v-23q-180 0 -260 -180l-221 -500v-626h209l2 -27l-569 4v23h192l2 649l-340 655h-182zM360 360q2 4 29 50q10 16 14 30h519q-22 -18 -31 -43q-10 -27 -10 -39zM360 584q2 4 29 49q10 16 14 31 h519q-22 -18 -31 -43q-10 -27 -10 -39z" />
<glyph unicode="&#xa9;" horiz-adv-x="1449" d="M86 649q0 170 86 318q88 150 231 233q147 86 317.5 86t317.5 -86q143 -84 232 -233q86 -147 86 -318q0 -168 -86 -315q-86 -145 -232 -232q-147 -86 -317 -86t-318 86q-145 86 -231 232q-86 147 -86 315zM127 649q0 -162 80 -297t217 -215t297 -80t297 80q139 80 219 215 t80 297q0 158 -80 297t-219 219q-137 80 -297 80t-297 -80q-135 -78 -217 -219q-80 -139 -80 -297zM463 680q0 115 55 217q39 70 76 102q43 41 104 52q100 0 174 -86l64 77l8 -2v-266h-8q-18 72 -64 150q-39 68 -100 106q-16 10 -47 10q-47 0 -70 -22q-94 -96 -94 -287 q0 -18 4 -104q2 -61 6 -101q6 -82 29 -141q20 -53 84 -82q16 -8 47 -8q37 0 57 14q63 51 93 115q31 70 55 168h6v-301q-14 4 -37 37q-18 27 -28 37l-5 6q-70 -88 -139 -88t-121 39q-55 41 -84 100q-65 131 -65 258z" />
<glyph unicode="&#xad;" d="M82 631q14 20 29 67q10 37 14 64h518q-23 -18 -31 -57q-10 -45 -10 -64z" />
<glyph unicode="&#xae;" horiz-adv-x="1449" d="M86 649q0 170 86 318q88 150 231 233q147 86 317.5 86t317.5 -86q143 -84 232 -233q86 -147 86 -318q0 -168 -86 -315q-86 -145 -232 -232q-147 -86 -317 -86t-318 86q-145 86 -231 232q-86 147 -86 315zM127 649q0 -162 80 -297t217 -215t297 -80t297 80q139 80 219 215 t80 297q0 158 -80 297t-219 219q-137 80 -297 80t-297 -80q-135 -78 -217 -219q-80 -139 -80 -297zM430 991l2 13h389q76 0 107 -84q18 -47 18 -95q0 -43 -14 -69q-18 -41 -53 -60q-33 -18 -97 -37q49 -14 82 -30q31 -16 43 -51q14 -45 21 -101q6 -74 14 -98q10 -33 39 -62 q4 -4 33 -4h26q4 0 10.5 1t8.5 1v-14q-86 0 -129 12q-41 12 -64 58q-16 35 -26.5 118.5t-18.5 120.5q-10 37 -49 37h-149v-330h88l-2 -14l-277 2v12h100v674h-102zM623 668h43q147 0 170 34q33 41 32 119q0 49 -18 99q-18 45 -72 57q-55 12 -155 12v-321z" />
<glyph unicode="&#xb4;" horiz-adv-x="845" d="M299 1020q39 25 117 80q72 49 155 117q76 61 76 81q2 -12 6 -41q4 -37 4 -61q0 -43 -10 -68z" />
<glyph unicode="&#x2000;" horiz-adv-x="686" />
<glyph unicode="&#x2001;" horiz-adv-x="1376" />
<glyph unicode="&#x2002;" horiz-adv-x="686" />
<glyph unicode="&#x2003;" horiz-adv-x="1376" />
<glyph unicode="&#x2004;" horiz-adv-x="456" />
<glyph unicode="&#x2005;" horiz-adv-x="342" />
<glyph unicode="&#x2006;" horiz-adv-x="227" />
<glyph unicode="&#x2007;" horiz-adv-x="227" />
<glyph unicode="&#x2008;" horiz-adv-x="169" />
<glyph unicode="&#x2009;" horiz-adv-x="274" />
<glyph unicode="&#x200a;" horiz-adv-x="75" />
<glyph unicode="&#x2010;" d="M82 631q14 20 29 67q10 37 14 64h518q-23 -18 -31 -57q-10 -45 -10 -64z" />
<glyph unicode="&#x2011;" d="M82 631q14 20 29 67q10 37 14 64h518q-23 -18 -31 -57q-10 -45 -10 -64z" />
<glyph unicode="&#x2012;" d="M82 631q14 20 29 67q10 37 14 64h518q-23 -18 -31 -57q-10 -45 -10 -64z" />
<glyph unicode="&#x2013;" horiz-adv-x="808" d="M68 631q20 27 30 69q9 40 13 62h626q-23 -18 -30 -57q-10 -45 -11 -64z" />
<glyph unicode="&#x2014;" horiz-adv-x="1073" d="M94 631q20 27 31 69q9 40 12 62h852q-25 -18 -33 -57q-10 -45 -10 -64z" />
<glyph unicode="&#x2018;" horiz-adv-x="305" d="M47 1010q0 182 166 342h16q-18 -23 -32.5 -43.5t-24.5 -32.5q-16 -20 -45 -66q-25 -37 -35 -75q-12 -43 -12 -93q34 31 74 31q31 0 53 -18q51 -39 51 -88q0 -15 -6 -31q-23 -68 -88 -72q-33 0 -68 18.5t-41 47.5q-8 31 -8 80z" />
<glyph unicode="&#x2019;" horiz-adv-x="305" d="M45 1237q0 15 6 31q25 68 88 69q33 0 70 -16q33 -14 39 -49q8 -33 8 -80q0 -182 -166 -342h-16l27.5 35.5l25.5 34.5q28 37 49 73q25 41 35 76q12 41 12 92q-31 -33 -76 -33q-27 0 -51 19q-51 39 -51 90z" />
<glyph unicode="&#x201c;" horiz-adv-x="552" d="M47 1010q0 182 166 342h16q-18 -23 -32.5 -43.5t-24.5 -32.5q-16 -20 -45 -66q-25 -37 -35 -75q-12 -43 -12 -93q34 31 74 31q31 0 53 -18q51 -39 51 -88q0 -15 -6 -31q-23 -68 -88 -72q-33 0 -68 18.5t-41 47.5q-8 31 -8 80zM295 1008q0 184 168 344h14l-59 -76 q-16 -20 -45 -66q-20 -31 -33 -75q-12 -43 -12 -93q33 31 75 31q29 0 54 -18q51 -43 51 -90q0 -14 -6 -29q-29 -70 -88 -72q-39 0 -70 17q-35 18 -41 49q-8 33 -8 78z" />
<glyph unicode="&#x201d;" horiz-adv-x="546" d="M45 1237q0 15 6 31q25 68 88 69q33 0 70 -16q33 -14 39 -49q8 -33 8 -80q0 -182 -166 -342h-16l27.5 35.5l25.5 34.5q28 37 49 73q25 41 35 76q12 41 12 92q-31 -33 -76 -33q-27 0 -51 19q-51 39 -51 90zM295 1237q0 15 6 31q25 66 86 69q35 0 72 -16q33 -14 39 -49 q8 -33 8 -78q0 -184 -168 -344h-14l27.5 35.5l25.5 34.5q28 37 49 73q25 41 35 76q12 41 12 92q-33 -33 -78 -33q-27 0 -51 19q-49 43 -49 90z" />
<glyph unicode="&#x2022;" horiz-adv-x="845" d="M80 557q0 92 47 174q47 80 127 127q82 47 174 47q74 0 135.5 -26.5t110.5 -75.5t75.5 -110.5t26.5 -135.5q0 -92 -47 -174q-47 -80 -127 -127q-82 -47 -174 -47t-174 47q-80 47 -127 127q-47 82 -47 174z" />
<glyph unicode="&#x2026;" horiz-adv-x="1024" d="M92 104q0 43 29 72t72 29t71.5 -29t28.5 -72q0 -45 -29 -71q-33 -29 -71 -29q-43 0 -72 28.5t-29 71.5zM440 104q0 43 29 72t72 29t71.5 -29t28.5 -72q0 -45 -29 -71q-33 -29 -71 -29q-43 0 -72 28.5t-29 71.5zM788 104q0 43 29 72t72 29t71.5 -29t28.5 -72t-28.5 -71.5 t-71.5 -28.5t-72 28.5t-29 71.5z" />
<glyph unicode="&#x202f;" horiz-adv-x="274" />
<glyph unicode="&#x205f;" horiz-adv-x="342" />
<glyph unicode="&#x2122;" horiz-adv-x="894" d="M55 1171v183h324v-183h-4q-8 74 -25 115q-14 37 -53 53q-2 0 -8 1t-18.5 3.5t-26.5 2.5v-433l69 2v-8h-190v8h55l8 431q-31 0 -47 -5q-43 -20 -59 -61q-12 -31 -23 -109h-2zM412 1343v7h135l92 -336h2l96 336h121v-7h-61v-434h61v-8h-182v8h67v416l-71 -264 q-43 -160 -49 -160q-4 0 -52 158l-75 262v-383q0 -6 8 -14.5t18 -10.5q8 -2 27 -2q6 0 11 -1t7 -1v-8h-153v8q70 0 69 31v375q0 12 -10 18q-4 2 -35 6q-10 1 -21 4h-5z" />
<glyph unicode="&#xe000;" horiz-adv-x="910" d="M0 910h910v-910h-910v910z" />
<glyph unicode="&#xfb01;" horiz-adv-x="1171" d="M706 885v24h287v-886h137v-25h-412v25h140v862h-152zM813 1255.5q0 38.5 28.5 67.5t67.5 29t67.5 -29t28.5 -67.5t-29 -67.5q-27 -27 -67.5 -27t-67.5 27q-28 29 -28 67.5zM27 4v21l159 2v833l-155 2v27h155q0 123 9 190q9 77 43 148q35 72 108 108q41 20 88 21 q57 0 103 -27q43 -27 69 -78q20 -29 21 -112q-6 -27 -29 -43q-20 -14 -47 -15q-23 0 -45 13q-37 20 -39 63q0 18 6 33q12 27 29 37q22 12 49 12q4 2 10 2q10 0 10 4q-31 72 -90 84q-18 8 -51 8q-61 0 -84 -43q-31 -68 -31 -219q0 -6 1 -34.5t1 -51.5v-100l158 -2v-29h-158 v-831l166 -2v-23z" />
<glyph unicode="&#xfb02;" horiz-adv-x="1191" d="M720 -2v25h136v1269h-131v25h266v-1294h151l-2 -25h-420zM27 4v21l159 2v833l-155 2v27h155q0 123 9 190q9 77 43 148q35 72 108 108q41 20 88 21q57 0 103 -27q43 -27 69 -78q20 -29 21 -112q-6 -27 -29 -43q-20 -14 -47 -15q-23 0 -45 13q-37 20 -39 63q0 18 6 33 q12 27 29 37q22 12 49 12q4 2 10 2q10 0 10 4q-31 72 -90 84q-18 8 -51 8q-61 0 -84 -43q-31 -68 -31 -219q0 -6 1 -34.5t1 -51.5v-100l158 -2v-29h-158v-831l166 -2v-23z" />
<glyph unicode="&#xfb03;" horiz-adv-x="1828" d="M1364 885v24h287v-886h137v-25h-412v25h140v862h-152zM1471 1255.5q0 38.5 28.5 67.5t67.5 29t67.5 -29t28.5 -67.5t-29 -67.5q-27 -27 -67.5 -27t-67.5 27q-28 29 -28 67.5zM684 4v21l159 2v833l-155 2v27h155q0 123 9 190q9 77 43 148q35 72 108 108q41 20 88 21 q57 0 103 -27q43 -27 69 -78q20 -29 21 -112q-6 -27 -29 -43q-20 -14 -47 -15q-23 0 -45 13q-37 20 -39 63q0 18 6 33q12 27 29 37q22 12 49 12q4 2 10 2q10 0 10 4q-31 72 -90 84q-18 8 -51 8q-61 0 -84 -43q-31 -68 -31 -219q0 -6 1 -34.5t1 -51.5v-100l158 -2v-29h-158 v-831l166 -2v-23zM27 4v21l159 2v833l-155 2v27h155q0 123 9 190q9 77 43 148q35 72 108 108q41 20 88 21q57 0 103 -27q43 -27 69 -78q20 -29 21 -112q-6 -27 -29 -43q-20 -14 -47 -15q-23 0 -45 13q-37 20 -39 63q0 18 6 33q12 27 29 37q22 12 49 12q4 2 10 2q10 0 10 4 q-31 72 -90 84q-18 8 -51 8q-61 0 -84 -43q-31 -68 -31 -219q0 -6 1 -34.5t1 -51.5v-100l158 -2v-29h-158v-831l166 -2v-23z" />
<glyph unicode="&#xfb04;" horiz-adv-x="1849" d="M1378 -2v25h136v1269h-131v25h266v-1294h151l-2 -25h-420zM684 4v21l159 2v833l-155 2v27h155q0 123 9 190q9 77 43 148q35 72 108 108q41 20 88 21q57 0 103 -27q43 -27 69 -78q20 -29 21 -112q-6 -27 -29 -43q-20 -14 -47 -15q-23 0 -45 13q-37 20 -39 63q0 18 6 33 q12 27 29 37q22 12 49 12q4 2 10 2q10 0 10 4q-31 72 -90 84q-18 8 -51 8q-61 0 -84 -43q-31 -68 -31 -219q0 -6 1 -34.5t1 -51.5v-100l158 -2v-29h-158v-831l166 -2v-23zM27 4v21l159 2v833l-155 2v27h155q0 123 9 190q9 77 43 148q35 72 108 108q41 20 88 21q57 0 103 -27 q43 -27 69 -78q20 -29 21 -112q-6 -27 -29 -43q-20 -14 -47 -15q-23 0 -45 13q-37 20 -39 63q0 18 6 33q12 27 29 37q22 12 49 12q4 2 10 2q10 0 10 4q-31 72 -90 84q-18 8 -51 8q-61 0 -84 -43q-31 -68 -31 -219q0 -6 1 -34.5t1 -51.5v-100l158 -2v-29h-158v-831l166 -2 v-23z" />
</font>
</defs>
</svg>
